<svg xmlns="http://www.w3.org/2000/svg" viewBox="0 0 737.28 737.28">
  <path d="m404.55884615 289.2675909-2.521-6.302-3.781 1.261-1.247.595-1.258.568-1.27.538-1.281.51-1.291.48-1.3.451-1.31.423-1.318.392-1.326.363-1.335.334-1.341.304-1.348.274-1.354.243-1.36.214-1.365.184-1.37.153-1.373.122-1.378.092-.929.041-.374-.009-1.185-.087-1.194-.141-1.204-.196-1.219-.247-1.238-.297-1.259-.345-1.286-.391-1.315-.435-1.348-.478-1.385-.518-1.426-.558-1.47-.594-1.519-.629-1.569-.663-1.626-.693-5.041-1.261-1.26 6.302-1.261 28.987.001 2.191.001 2.043.003 1.905.006 1.774.01 1.655.014 1.543.021 1.44.027 1.348.035 1.264.044 1.19.053 1.124.064 1.069.076 1.021.088.983.102.955.116.936.132.925.148.925.166.932.184.95.203.977.224 1.012.245 1.058.268 1.112.29 1.175.545 1.48.554 1.47.563 1.459.572 1.448.58 1.435.588 1.421.596 1.409.602 1.393.61 1.379.616 1.362.623 1.346.628 1.329.634 1.311.639 1.292.643 1.273.649 1.253.652 1.233.656 1.211.66 1.189.662 1.166.666 1.143.668 1.119.67 1.094.671 1.068.673 1.042.675 1.016.674.987.675.96 1.968 2.707 1.729 2.241 1.531 1.774 1.376 1.307 1.263.84.696.218.128.062.091.007.274.086.397-.032.396.032.275-.086.09-.007.128-.062.697-.218 1.262-.84 1.376-1.307 1.532-1.774 1.729-2.241 1.967-2.707.805-.96.796-.987.785-1.016.774-1.042.763-1.068.752-1.094.74-1.119.729-1.143.715-1.166.703-1.189.69-1.211.677-1.233.662-1.253.649-1.273.634-1.292.619-1.311.605-1.329.588-1.346.573-1.362.557-1.379.54-1.393.523-1.409.506-1.421.488-1.435.471-1.448.452-1.459.434-1.47.414-1.48.436-1.175.401-1.112.368-1.058.335-1.012.305-.977.276-.95.249-.932.222-.925.198-.925.175-.936.152-.955.133-.983.113-1.021.096-1.069.08-1.124.066-1.19.052-1.264.041-1.348.031-1.44.022-1.543.015-1.655.009-1.774.004-1.905.002-2.043v-2.191l-1.26-28.987m-250.801 189.044-2.521 2.52-3.781-3.781-.731-.889-.853-.886-.965-.88-1.068-.87-1.162-.859-1.247-.843-1.322-.824-1.388-.803-1.445-.778-1.493-.751-1.532-.72-1.56-.686-1.581-.649-1.592-.609-1.593-.565-1.585-.52-1.568-.471-1.445-.465-1.438-.432-1.43-.397-1.423-.363-1.416-.33-1.408-.295-1.4-.262-1.393-.228-1.385-.194-1.376-.161-1.368-.127-1.36-.094-1.351-.06-1.342-.028-1.333.006-1.325.04-1.315.072-1.306.105-1.296.138-1.287.171-1.277.204-1.267.237-1.257.269-1.247.301-1.237.334-1.226.367-1.215.399-1.205.431-1.194.463-1.182.496-1.172.527-1.16.56-1.148.591-1.137.624-1.126.654-1.113.687-1.101.718-1.089.75-1.076.781-1.064.813-1.051.844-1.039.875-1.025.907-1.013.937-.999.969-.985.999-.973 1.031-1.061 1.112-1.033 1.136-1.003 1.159-.974 1.183-.945 1.205-.914 1.227-.885 1.249-.853 1.269-.822 1.289-.79 1.309-.759 1.328-.726 1.346-.694 1.364-.661 1.382-.628 1.397-.594 1.415-.559 1.429-.526 1.445-.422 1.248-.396 1.255-.369 1.262-.342 1.269-.316 1.275-.289 1.28-.262 1.285-.235 1.29-.208 1.294-.181 1.298-.154 1.302-.127 1.304-.1 1.308-.073 1.309-.01.293.267.073-.119 1.313-.091 1.313-.065 1.313-.013.472.013.472.065 1.314.091 1.313.119 1.312-.268.049.011.318.073 1.309.1 1.307.127 1.305.154 1.301.181 1.298.208 1.294.235 1.29.262 1.286.289 1.28.316 1.274.342 1.269.369 1.262.396 1.256.422 1.248.526 1.444.559 1.43.594 1.414.628 1.398.661 1.381.694 1.364.726 1.347.759 1.327.79 1.309.822 1.29.853 1.269.885 1.248.914 1.227.945 1.205.974 1.183 1.003 1.16 1.033 1.136 1.061 1.112.973.952.985.924.999.896 1.013.869 1.025.842 1.039.813 1.051.786 1.064.758 1.076.73 1.089.702 1.101.674 1.113.645 1.126.617 1.137.589 1.148.561 1.16.532 1.172.504 1.182.475 1.194.446 1.205.417 1.215.389 1.226.36 1.237.33 1.247.302 1.257.273 1.267.243 1.277.214 1.287.185 1.296.155 1.306.126 1.315.096 1.325.066 1.333.037 1.342.007 1.351-.022 1.36-.053 1.368-.083 1.376-.113 1.385-.143 1.393-.173 1.4-.203 1.408-.234 1.416-.265 1.423-.295 1.43-.325 1.438-.356 1.445-.387 1.481-.454 1.497-.519 1.509-.579 1.512-.633 1.509-.682 1.5-.727 1.485-.765 1.463-.8 1.434-.827 1.4-.851 1.357-.869 1.31-.883 1.256-.889 1.194-.893 1.127-.89 1.053-.882.973-.869.885-.851 2.521-3.781 2.521 2.521 31.507 31.507-.099.412-.291.542-.469.662-.637.77-.791.868-.934.956-1.065 1.032-1.183 1.098-1.29 1.154-1.384 1.198-1.466 1.233-1.537 1.256-1.596 1.268-1.641 1.271-1.675 1.262-1.698 1.244-1.707 1.213-1.705 1.173-1.691 1.121-1.665 1.06-1.626.988-1.576.904-1.271.651-1.291.631-1.311.613-1.33.593-1.348.574-1.366.555-1.383.536-1.399.516-1.416.497-1.43.478-1.446.459-1.459.439-1.473.419-1.485.4-1.497.381-1.509.361-1.52.342-1.53.322-1.539.303-1.548.283-1.557.263-1.564.243-1.571.224-1.577.204-1.583.185-1.589.164-1.592.145-1.597.124-1.599.105-1.603.085-1.604.065-1.605.045-1.606.025-1.606.005-1.605-.015-1.605-.035-1.602-.056-1.599-.075-1.597-.096-1.593-.116-1.588-.136-1.583-.157-1.577-.177-1.571-.197-1.564-.217-1.557-.238-1.548-.259-1.539-.279-1.53-.299-1.52-.32-1.509-.341-1.497-.361-1.485-.382-1.473-.402-1.459-.423-1.446-.444-1.43-.465-1.416-.485-1.4-.506-1.383-.527-1.366-.548-1.348-.569-1.329-.589-1.553-.732-1.538-.754-1.521-.777-1.507-.798-1.49-.821-1.475-.842-1.459-.864-1.442-.885-1.427-.905-1.41-.927-1.394-.947-1.377-.967-1.36-.987-1.344-1.006-1.326-1.027-1.31-1.045-1.292-1.065-1.276-1.083-1.257-1.101-1.24-1.12-1.223-1.138-1.205-1.156-1.186-1.174-1.169-1.19-1.151-1.208-1.132-1.224-1.114-1.241-1.096-1.258-1.077-1.273-1.058-1.29-1.039-1.305-1.02-1.32-1.001-1.335-.982-1.351-.963-1.365-.943-1.379-.923-1.393-.904-1.408-.884-1.421-.864-1.434-.844-1.448-.823-1.461-.804-1.473-.783-1.486-.762-1.498-.742-1.51-.721-1.521-.7-1.533-.678-1.545-.658-1.555-.637-1.567-.615-1.576-.593-1.587-.572-1.597-.55-1.607-.528-1.617-.506-1.625-.484-1.635-.462-1.644-.439-1.652-.417-1.661-.394-1.668-.372-1.677v-42.85l.372-1.676.394-1.669.417-1.66.439-1.653.462-1.643.484-1.634.506-1.625.528-1.616.55-1.606.572-1.595.593-1.586.615-1.574.637-1.564.658-1.553.678-1.541.7-1.53.721-1.517.742-1.506.762-1.493.783-1.48.804-1.467.823-1.453.844-1.44.864-1.426.884-1.412.904-1.398.923-1.383.943-1.368.963-1.352.982-1.337 1.001-1.322 1.02-1.305 1.039-1.289 1.058-1.272 1.077-1.256 1.096-1.238 1.114-1.221 1.132-1.203 1.151-1.186 1.169-1.167 1.186-1.148 1.205-1.13 1.223-1.111 1.24-1.091 1.257-1.072 1.276-1.052 1.292-1.031 1.31-1.012 1.326-.99 1.344-.97 1.36-.949 1.377-.926 1.394-.906 1.41-.883 1.427-.861 1.442-.838 1.459-.815 1.475-.793 1.49-.768 1.507-.746 1.521-.721 1.538-.697 1.553-.672 1.329-.59 1.348-.569 1.366-.547 1.383-.527 1.4-.507 1.416-.485 1.43-.464 1.446-.444 1.459-.423 1.473-.403 1.485-.382 1.497-.361 1.509-.34 1.52-.32 1.53-.3 1.539-.279 1.548-.258 1.557-.238 1.564-.218 1.571-.197 1.577-.177 1.583-.156 1.588-.137 1.593-.116 1.597-.095 1.599-.076 1.602-.055 1.605-.036 1.605-.015 1.606.005 1.606.025 1.605.045 1.604.065 1.603.085 1.599.105 1.597.125 1.592.145 1.589.164 1.583.184 1.577.204 1.571.224 1.564.244 1.557.263 1.548.283 1.539.302 1.53.323 1.52.341 1.509.361 1.497.381 1.485.4 1.473.42 1.459.439 1.446.458 1.43.478 1.416.497 1.399.517 1.383.535 1.366.555 1.348.574 1.33.594 1.311.612 1.291.632 1.271.65 1.576.897 1.626.967 1.665 1.027 1.691 1.081 1.705 1.124 1.707 1.159 1.698 1.187 1.675 1.205 1.641 1.215 1.596 1.217 1.537 1.209 1.466 1.194 1.384 1.17 1.29 1.137 1.183 1.095 1.065 1.046.934.988.791.921.637.846.469.762.291.67.099.569-.106.251-.31.443-.5.62-.676.781-.837.929-.985 1.063-1.119 1.18-1.238 1.285-1.344 1.375-1.435 1.449-1.512 1.51-1.576 1.556-1.625 1.587-1.661 1.605-1.681 1.606-1.69 1.595-1.682 1.568-1.661 1.527-1.627 1.471-1.578 1.401-1.515 1.316-1.438 1.218-1.347 1.103-1.241.975-1.123.833m131.072-374.307-1.23.907-.746 1.21-.384 1.512-.141 1.815-.02 2.118.029.54.111.472.232.423.39.396.586.389.82.402 1.093.437 1.402.493 1.749.567 2.135.665 2.559.781 3.02.919 3.518 1.077 17.645 7.562 1.48.834 1.469.881 1.456.925 1.441.968 1.424 1.01 1.406 1.049 1.386 1.087 1.365 1.124 1.341 1.158 1.316 1.19 1.289 1.222 1.261 1.251 1.23 1.278 1.198 1.304 1.164 1.328 1.129 1.351 1.092 1.372 1.053 1.39 1.012 1.407.969 1.424.926 1.436.88 1.449.832 1.459.783 1.468.732 1.475.68 1.48.625 1.483.568 1.485 1.261 5.041 6.301-2.52 3.075-1.391 1.866-1.271.957-1.331.353-1.573.051-1.996-.24-1.045-.318-1.14-.391-1.221-.459-1.294-.52-1.354-.576-1.404-.627-1.442-.672-1.47-.712-1.487-.746-1.492-.775-1.486-.797-1.47-.816-1.443-.827-1.403-.835-1.355-.835-1.293-.831-1.222-.821-1.139-.805-1.046-.826-1.031-.873-1.029-.918-1.027-.96-1.024-1.002-1.018-1.04-1.012-1.078-1.005-1.113-.995-1.147-.986-1.178-.974-1.208-.961-1.236-.948-1.261-.932-1.286-.916-1.308-.899-1.327-.879-1.347-.859-1.362-.838-1.377-.815-1.39-.791-1.4-.766-1.41-.739-1.416-.712-1.421-.682-1.425-.653-1.425-.62-1.425-.588-1.423-.554-1.418-.518-1.412-.482-1.403-.444-1.394-.405-1.381-.364-2.066-.408-1.992-.382-1.917-.353-1.84-.323-1.759-.289-1.676-.252-1.59-.213-1.503-.173-1.411-.127-1.319-.082-1.222-.032-1.124.02-1.022.075-.919.131-.813.191-.703.253-.592.318-.478.386m162.579 0-1.467.327-1.461.349-1.454.373-1.447.396-1.439.419-1.431.441-1.422.463-1.413.485-1.403.508-1.393.53-1.383.551-1.371.572-1.359.595-1.347.615-1.335.636-1.322.658-1.307.678-1.294.699-1.279.719-1.265.739-1.248.759-1.233.78-1.216.799-1.199.819-1.181.838-1.163.857-1.145.877-1.126.896-1.107.914-1.087.933-1.066.952-1.045.969-1.024.988-1.002 1.006-.98 1.024-.957 1.042-.702.912-.728 1.012-.75 1.101-.766 1.181-.778 1.25-.784 1.31-.785 1.36-.782 1.399-.773 1.43-.76 1.449-.741 1.459-.718 1.459-.69 1.449-.656 1.43-.617 1.399-.575 1.36-.526 1.31-.473 1.25-.414 1.181-.352 1.101-.283 1.012-.21.912-.473 1.694.473 1.457 1.418 1.457 2.363 1.694 6.301 3.78 6.302-10.082.807-1.75.828-1.672.852-1.598.876-1.532.902-1.47.928-1.414.955-1.363.984-1.318 1.014-1.278 1.045-1.244 1.077-1.215 1.109-1.192 1.144-1.175 1.18-1.162 1.215-1.156 1.253-1.154 1.292-1.159 1.332-1.169 1.372-1.185 1.343-.889 1.311-.854 1.281-.82 1.255-.786 1.232-.754 1.213-.723 1.197-.692 1.184-.662 1.176-.634 1.169-.606 1.167-.58 1.168-.554 1.172-.529 1.18-.506 1.191-.483 1.206-.461 1.223-.44 1.245-.421 1.269-.401 1.298-.384 1.329-.367 1.364-.351 1.402-.336 1.444-.321 1.489-.309 11.342-5.041.858-1.441.123-1.686-.508-1.757-1.033-1.651-1.453-1.371-1.768-.916-.924-.578-.902-.472-.911-.368-.95-.263-1.021-.157-1.121-.053-1.252.053-1.414.157-1.607.263-1.83.368-2.083.472-2.369.578m-340.283 3.781-1.847.434-1.76.492-1.675.551-1.589.61-1.503.669-1.418.728-1.334.789-1.249.849-1.165.909-1.081.971-.998 1.031-.915 1.094-.833 1.155-.75 1.218-.668 1.28-.586 1.344-.505 1.407-.424 1.47-.344 1.535-.263 1.599-.183 1.664-.104 1.729-.024 1.794.054 1.86.133 1.927.211 1.992.289 2.06.366 2.127.35 1.484.373 1.481.397 1.479.421 1.474.443 1.471.467 1.467.488 1.463.512 1.457.533 1.452.555 1.447.576 1.441.598 1.435.619 1.428.639 1.422.661 1.414.68 1.407.7 1.398.72 1.391.74 1.381.758 1.373.778 1.364.796 1.354.815 1.344.833 1.333.85 1.323.869 1.312.886 1.3.903 1.289.92 1.277.936 1.264.953 1.252.969 1.238.985 1.225 1 1.211 1.016 1.198 1.031 1.182 1.045 1.168 1.06 1.153 1.075 1.137 1.088 1.121 1.103 1.106 1.115 1.088 1.129 1.072 1.142 1.054 1.155 1.037 1.168 1.019 1.179 1.001 1.192.982 1.203.964 1.214.944 1.226.924 1.237.904 1.248.884 1.257.864 1.268.842 1.278.821.956.652.947.634.94.618.934.602.928.585.925.569.921.553.919.538.919.522.919.506.92.492.923.477.926.463.931.448.937.433.943.42.951.406.961.393.97.379.981.366.994.353 1.007.34 1.022.328 1.037.316 1.053.304 1.072.291 1.09.281 1.11.268 1.131.258 1.153.246 1.176.236 1.2.225 1.226.214 1.252.205 1.28.195 1.308.184 1.337.176 1.369.166 1.4.157 1.434.148 1.467.139 1.502.131 1.539.122 1.576.115 1.614.107 1.654.099 1.694.092 1.736.084 1.779.078 1.823.07 1.867.064 1.914.058 1.96.052 2.009.046 2.058.04 2.108.034 2.16.03 2.212.024 2.266.019 2.321.015 2.376.01 2.433.006 2.492.002 2.083-.001 2.049-.003 2.016-.005 1.983-.007 1.949-.009 1.917-.011 1.885-.013 1.853-.015 1.821-.017 1.789-.02 1.759-.021 1.728-.024 1.698-.026 1.668-.029 1.638-.031 1.609-.033 1.58-.035 1.552-.038 1.523-.041 1.495-.043 1.467-.045 1.44-.048 1.413-.05 1.387-.054 1.36-.055 1.334-.059 1.309-.061 1.283-.064 1.258-.066 1.234-.07 1.209-.072 1.185-.075 1.162-.078 1.138-.081 1.116-.083 1.092-.087 1.071-.09 1.048-.092 1.027-.096 1.005-.099.985-.102.963-.105.944-.108.923-.112.904-.115.885-.118.865-.121.847-.124.829-.128.81-.132.793-.135.775-.138.759-.141.742-.146.725-.148.71-.153.694-.156.678-.159.664-.163.649-.167.634-.171.621-.174.607-.178 2.427-.75 2.336-.791 2.243-.832 2.148-.871 2.052-.906 1.954-.941 1.854-.972 1.752-1.002 1.65-1.03 1.544-1.055 1.437-1.078 1.33-1.1 1.219-1.118 1.107-1.135.993-1.149.878-1.163.762-1.172.642-1.181.522-1.186.4-1.191.276-1.192.15-1.192.023-1.189-.106-1.185-.237-1.177-.369-1.169-.27-.626-.306-.621-.347-.618-.39-.618-.438-.621-.488-.626-.541-.635-.599-.646-.659-.66-.723-.677-.791-.696-.861-.719-.935-.744-1.012-.772-1.093-.803-1.176-.837-1.265-.872-1.355-.913-1.449-.954-1.546-.999-1.648-1.046-1.751-1.097-1.859-1.15-1.97-1.206-2.084-1.265-2.202-1.327-2.323-1.391-2.447-1.458-2.575-1.528-2.706-1.601-2.87-1.727-2.846-1.701-2.825-1.674-2.801-1.647-2.78-1.622-2.758-1.595-2.736-1.569-2.714-1.543-2.693-1.517-2.672-1.491-2.65-1.465-2.63-1.44-2.609-1.414-2.589-1.388-2.568-1.364-2.548-1.338-2.528-1.312-2.509-1.288-2.489-1.262-2.469-1.238-2.45-1.212-2.431-1.188-2.412-1.164-2.394-1.138-2.375-1.114-2.357-1.09-2.338-1.066-2.321-1.041-2.303-1.017-2.285-.993-2.268-.969-2.25-.945-2.234-.922-2.216-.897-2.2-.875-2.184-.85-2.167-.828-2.151-.803-2.135-.781-2.119-.758-2.103-.734-2.089-.712-2.073-.689-2.057-.666-2.043-.643-2.029-.621-2.013-.598-2-.576-1.985-.553-1.971-.531-1.958-.51-1.944-.487-1.93-.465-1.918-.443-1.904-.421-1.891-.4-1.879-.378-1.866-.357-1.853-.335-1.842-.314-1.83-.293-1.817-.272-1.807-.25-1.166-.219-1.204-.199-1.24-.179-1.272-.16-1.301-.142-1.327-.124-1.35-.107-1.369-.091-1.386-.075-1.399-.059-1.409-.046-1.416-.031-1.42-.018-1.42-.006-1.418.007-1.412.018-1.404.029-1.391.038-1.377.048-1.357.057-1.337.066-1.312.072-1.284.08-1.253.086-1.219.092-1.182.097-1.141.101-1.098.105-1.051.108-1.002.111-.948.112-.892.114-.833.115m497.822-1.261-3.279.668-3.271.694-3.264.72-3.257.747-3.249.773-3.241.798-3.233.825-3.225.851-3.216.877-3.208.902-3.2.929-3.191.954-3.182.979-3.173 1.006-3.164 1.03-3.155 1.056-3.145 1.081-3.135 1.107-3.126 1.132-3.116 1.156-3.106 1.182-3.095 1.207-3.085 1.232-3.075 1.256-3.064 1.281-3.054 1.306-3.042 1.331-3.031 1.355-3.02 1.379-3.009 1.404-2.997 1.428-2.985 1.452-2.973 1.477-2.962 1.5-2.949 1.525-2.937 1.548-2.925 1.573-2.912 1.596-2.899 1.62-2.887 1.643-2.873 1.667-2.86 1.691-2.847 1.714-2.834 1.737-2.819 1.761-2.806 1.784-2.792 1.807-2.778 1.83-2.764 1.853-2.75 1.876-2.734 1.899-2.721 1.922-2.705 1.944-2.69 1.967-2.676 1.989-2.66 2.013-2.644 2.034-2.629 2.057-2.614 2.079-2.597 2.101-2.581 2.124-2.566 2.145-2.549 2.167-.118 1.36.084 1.402.281 1.436.473 1.46.657 1.476.835 1.483 1.008 1.479 1.174 1.466 1.334 1.446 1.488 1.414 1.636 1.375 1.778 1.325 1.913 1.266 2.042 1.199 2.165 1.122 2.282 1.036 2.394.941.834.345.822.334.813.325.804.315.798.304.792.296.788.285.786.277.786.267.786.258.789.249.793.24.798.232.806.223.813.215.824.207.836.198.848.191.864.183.879.175.898.168.916.16.938.153.96.146.984.139 1.009.133 1.036.126 1.065.119 1.095.113 1.126.107 1.16.1 1.194.095 1.23.089 1.269.084 1.307.078 1.348.072 1.391.068 1.435.062 1.48.058 1.527.052 1.575.049 1.626.043 1.677.04 1.73.035 1.785.031 1.841.027 1.898.024 1.958.02 2.019.016 2.081.013 2.145.01 2.211.007 2.277.004 2.346.001 2.031.059 2.012.054 1.992.05 1.973.047 1.953.043 1.933.039 1.914.035 1.893.032 1.873.027 1.853.024 1.832.02 1.812.016 1.79.013 1.77.008 1.748.005 1.727.001 1.705-.003 1.684-.007 1.663-.01 1.64-.014 1.618-.018 1.596-.022 1.573-.026 1.551-.03 1.529-.033 1.505-.037 1.483-.041 1.459-.045 1.436-.048 1.413-.053 1.389-.056 1.365-.06 1.342-.064 1.317-.067 1.293-.072 1.269-.075 1.244-.079 1.22-.083 1.195-.087 1.17-.09 1.145-.095 1.12-.098 1.094-.102 1.068-.105 1.043-.11 1.017-.113.992-.117.964-.121.939-.125.912-.129.886-.132.859-.136.831-.141.805-.143.778-.148.75-.151.723-.156.695-.159.667-.163.639-.166.611-.171.583-.174.554-.178 1.617-.49 1.609-.523 1.601-.556 1.593-.588 1.584-.621 1.575-.653 1.565-.685 1.555-.716 1.545-.747 1.534-.778 1.523-.808 1.512-.838 1.499-.868 1.488-.897 1.475-.926 1.461-.954 1.449-.983 1.434-1.01 1.42-1.038 1.406-1.066 1.391-1.092 1.375-1.119 1.359-1.145 1.344-1.171 1.327-1.196 1.309-1.221 1.293-1.247 1.275-1.27 1.257-1.295 1.238-1.319 1.22-1.342 1.2-1.365 1.181-1.387 1.16-1.411 1.14-1.432 1.12-1.454 1.098-1.475 1.077-1.496 1.054-1.517 1.032-1.538 1.01-1.557.987-1.577.962-1.596.94-1.615.914-1.634.89-1.652.865-1.67.84-1.687.814-1.705.787-1.722.761-1.738.734-1.754.707-1.77.678-1.786.651-1.801.622-1.815.545-1.411.513-1.427.482-1.441.452-1.452.42-1.458.389-1.462.358-1.462.326-1.459.296-1.451.265-1.442.233-1.427.202-1.41.171-1.39.14-1.365.109-1.337.078-1.307.047-1.272.015-1.233-.015-1.193-.047-1.147-.078-1.099-.109-1.047-.14-.992-.171-.933-.202-.87-.233-.805-.265-.736-.849-1.33-.926-1.286-1.003-1.237-1.08-1.181-1.158-1.121-1.234-1.054-1.312-.983-1.389-.906-1.466-.823-1.543-.735-1.62-.641-1.698-.542-1.775-.437-1.852-.327-.778-.122-.866-.122-.95-.12-1.026-.119-1.097-.117-1.163-.114-1.222-.111-1.275-.108-1.324-.103-1.365-.099-1.401-.094-1.431-.089-1.456-.082-1.474-.076-1.487-.068-1.494-.061-1.495-.053-1.49-.044-1.479-.035-1.463-.026-1.441-.015-1.412-.005-1.378.007-1.339.018-1.293.031-1.241.043-1.184.056-1.121.07-1.051.084-.977.099-.896.114m-238.198 74.358-1.453.916-1.447 1.003-1.432 1.085-1.412 1.165-1.384 1.24-1.35 1.313-1.308 1.381-1.261 1.447-1.205 1.508-1.143 1.568-1.074 1.622-.999 1.674-.916 1.722-.708 1.449-.615 1.336-.532 1.248-.459 1.18-.394 1.135-.337 1.113-.291 1.112-.252 1.136-.223 1.18-.204 1.247-.192 1.337-.189 1.449-.197 1.583-.212 1.74-.237 1.919.005 1.727.016 1.672.028 1.618.04 1.568.054 1.519.068 1.474.085 1.43.101 1.39.12 1.35.138 1.315.158 1.281.18 1.249.201 1.221.224 1.194.249 1.169.274 1.149.299 1.128.327 1.112.356 1.098.384 1.085.415 1.076.447 1.069.478 1.064.512 1.061.547 1.061.582 1.064.618 1.069.656 1.076 1.008 1.443 1.047 1.371 1.086 1.297 1.121 1.221 1.154 1.146 1.185 1.067 1.212.989 1.238.908 1.261.827 1.281.745 1.3.66 1.315.575 1.328.489 1.339.402 1.346.312 1.353.222 1.355.131 1.356.038 1.354-.055 1.35-.151 1.343-.247 1.334-.344 1.321-.443 1.184-.432 1.162-.498 1.139-.563 1.116-.625 1.093-.686 1.068-.745 1.044-.803 1.017-.858.991-.912.964-.964.936-1.014.907-1.062.879-1.109.848-1.153.818-1.197.786-1.238.755-1.277.722-1.315.688-1.351.655-1.385.62-1.417.584-1.447.548-1.477.512-1.503.473-1.528.436-1.551.397-1.573.358-1.593.317-1.61.276-1.627.234-1.641.193-1.653.149-1.665.106-1.673.061-1.68.016-1.686-.03-1.689-.076-1.692-.151-1.516-.2-1.522-.247-1.525-.294-1.526-.339-1.525-.382-1.52-.424-1.514-.465-1.504-.504-1.493-.541-1.478-.578-1.462-.614-1.442-.646-1.42-.679-1.396-.71-1.369-.739-1.34-.767-1.308-.794-1.273-.819-1.236-.843-1.197-.865-1.155-.886-1.11-.906-1.064-.924-1.013-.941-.962-.956-.907-.97-.85-.983-.79-.994-.728-1.004-.663-1.135-.502-1.235-.424-1.317-.347-1.383-.271-1.433-.192-1.466-.116-1.483-.039-1.483.039-1.466.116-1.433.192-1.383.271-1.317.347-1.235.424-1.135.502m-52.933 65.535-22.686 17.644-1.952 1.669-1.888 1.604-1.827 1.541-1.767 1.48-1.71 1.42-1.656 1.363-1.602 1.306-1.552 1.252-1.504 1.199-1.457 1.147-1.415 1.098-1.372 1.05-1.334 1.004-1.296.959-1.262.916-1.229.874-1.199.835-1.171.797-1.145.761-1.121.725-1.101.693-1.081.661-1.065.632-1.05.603-1.038.577-1.027.552-1.02.529-1.015.507-1.011.488-1.01.469-1.011.453-1.014.438-1.021.424-1.028.413-1.038.404-1.051.395-1.065.388-1.083.383-1.101.38-1.123.379-1.87.482-1.823.366-1.768.251-1.704.135-1.633.019-1.553-.096-1.464-.212-1.369-.328-1.263-.444-1.151-.559-1.029-.675-.9-.791-.762-.907-.616-1.022-.945-1.852-.675-1.775-.405-1.697-.135-1.621.135-1.543.405-1.466.675-1.389.945-1.312 1.216-1.234 1.485-1.158 1.755-1.08 2.026-1.003 2.295-.926 2.566-.849 15.124-6.301 2.752-1.454 2.438-1.45 2.126-1.443 1.812-1.433 1.499-1.419 1.185-1.402.873-1.382.559-1.357.246-1.33-.067-1.298-.38-1.265-.694-1.226-1.006-1.185-.221-.216-.219-.203-.225-.191-.236-.179-.254-.168-.277-.156-.306-.146-.341-.135-.383-.125-.429-.115-.483-.107-.542-.097-.607-.089-.678-.081-.755-.073-.837-.066-.927-.059-1.021-.052-1.123-.046-1.229-.041-1.341-.035-1.461-.03-1.585-.025-1.716-.022-1.852-.017-1.995-.014-2.144-.011-2.298-.008-2.458-.006-2.625-.004-2.797-.002-2.976-.001-3.16-.001h-6.489l-2.991.001-2.849.002-2.709.003-2.574.006-2.443.009-2.316.013-2.192.017-2.074.021-1.958.027-1.848.032-1.74.039-1.638.046-1.538.054-1.443.062-1.353.071-1.265.081-1.182.09-1.104.101-1.029.113-.957.124-.891.137-.828.149-.769.163-.715.178-.663.192-.617.207-.574.224-.535.239-.5.258-.47.274-.443.293-.421.313-.401.331-.387.352-.377.372-.369.393-.368.416-.368.438-.374.461-.679.766-.618.878-.556.981-.491 1.077-.424 1.165-.356 1.247-.286 1.321-.214 1.387-.14 1.446-.064 1.498.013 1.542.093 1.579.174 1.608.257 1.631.342 1.646.428 1.653.438 1.258.474 1.254.509 1.25.544 1.244.579 1.24.612 1.234.646 1.228.679 1.221.711 1.215.744 1.207.775 1.201.806 1.192.837 1.185.868 1.175.897 1.167.927 1.158.955 1.148.984 1.138 1.013 1.127 1.039 1.117 1.067 1.106 1.094 1.095 1.119 1.083 1.146 1.07 1.171 1.058 1.195 1.045 1.22 1.032 1.244 1.018 1.268 1.005 1.291.99 1.313.975 1.335.96 1.357.945 1.378.929 1.399.913 1.42.896 1.439.88 1.458.862 1.478.844 1.496.827 1.514.808 1.532.79 1.549.771 1.565.751 1.582.731 1.598.711 1.613.691 1.627.67 1.643.649 1.656.627 1.67.605 1.682.583 1.696.56 1.707.537 1.72.514 1.73.489 1.741.466 1.752.442 1.762.416 1.771.391 1.78.366 1.788.339 1.797.314 1.793.286 1.781.257 1.766.228 1.753.2 1.739.172 1.725.143 1.71.114 1.696.086 1.682.057 1.667.029h1.652l1.637-.029 1.622-.057 1.607-.086 1.591-.114 1.575-.143 1.56-.172 1.544-.2 1.528-.228 1.511-.257 1.496-.286 1.478-.315 1.462-.343 1.446-.371 1.428-.4 1.411-.429 1.394-.457 1.377-.486 1.359-.514 1.341-.543 1.323-.572 1.305-.6 1.288-.629 1.268-.657 1.251-.686 1.231-.714 1.213-.743 1.194-.772 1.175-.8 1.156-.829 1.136-.857 1.117-.886 1.097-.915 1.077-.943 1.058-.971 1.037-1.001 1.016-1.028.997-1.058.976-1.086.955-1.114.934-1.143.913-1.172.892-1.2.87-1.229.849-1.258.828-1.286.805-1.314.784-1.344.761-1.371.74-1.401.716-1.429.695-1.457.671-1.486.571-1.309.548-1.308.526-1.307.503-1.307.481-1.304.459-1.302.436-1.3.414-1.296.391-1.294.369-1.289.347-1.285.325-1.28.302-1.275.279-1.27.258-1.264.234-1.257.213-1.25.19-1.243.168-1.235.145-1.227.123-1.218.101-1.209.078-1.2.056-1.19.034-1.18.011-1.169-.047-2.34-.14-2.009-.233-1.719-.327-1.469-.42-1.262-.513-1.096-.607-.972-.7-.888-.794-.848-1.205-1.057-1.326-.899-1.416-.732-1.477-.558-1.508-.377-1.507-.188-1.477.009-1.417.213-1.325.425-1.205.644m110.907 1.26-.762.506-.709.571-.656.636-.604.703-.551.768-.499.833-.446.9-.394.965-.342 1.03-.288 1.096-.237 1.162-.184 1.228-.131 1.293-.079 1.358-.026 1.425.026 1.49.079 1.556.131 1.621.184 1.687.237 1.752.288 1.819.342 1.883.394 1.95.446 2.015.472 1.876.503 1.846.534 1.817.565 1.787.596 1.758.626 1.727.656 1.697.686 1.667.715 1.637.745 1.606.774 1.575.803 1.544.831 1.513.86 1.482.888 1.45.916 1.419.944 1.387.972 1.355.999 1.324 1.025 1.291 1.053 1.259 1.079 1.226 1.106 1.194 1.131 1.161 1.158 1.128 1.183 1.094 1.209 1.062 1.233 1.028 1.259.995 1.284.961 1.308.927 1.332.893 1.356.859 1.38.824 1.404.79 1.427.756 1.45.72 1.473.686 1.495.65 1.518.616 1.541.579 1.562.545 1.583.508 1.606.473 1.626.436 1.648.401 1.668.364 1.689.327 1.709.291 1.729.254 1.749.217 1.769.18 1.788.143 1.807.105 1.826.067 1.845.03 1.863-.008 1.881-.046 1.86-.075 1.857-.106 1.854-.135 1.85-.164 1.847-.194 1.841-.223 1.837-.251 1.831-.279 1.824-.307 1.818-.335 1.81-.362 1.803-.388 1.794-.415 1.785-.441 1.776-.467 1.765-.493 1.755-.518 1.744-.542 1.732-.567 1.72-.591 1.707-.615 1.693-.639 1.68-.662 1.665-.684 1.651-.707 1.635-.729 1.619-.751 1.602-.773 1.585-.793 1.567-.815 1.549-.835 1.531-.855 1.511-.875 1.491-.895 1.471-.913 1.449-.933 1.429-.951 1.406-.969 1.384-.987 1.36-1.005 1.337-1.022 1.312-1.038 1.288-1.055 1.263-1.072 1.237-1.087 1.21-1.102 1.183-1.118 1.156-1.133 1.128-1.147 1.099-1.161 1.07-1.176 1.041-1.188 1.01-1.202.979-1.215.948-1.227.917-1.24.884-1.251.851-1.263.817-1.274.784-1.285.749-1.296.713-1.305.679-1.316.803-1.799.731-1.759.658-1.716.583-1.675.51-1.634.435-1.592.36-1.551.285-1.509.209-1.468.133-1.426.057-1.385-.021-1.343-.097-1.302-.175-1.26-.253-1.219-.331-1.178-.411-1.135-.489-1.095-.569-1.053-.649-1.011-.729-.97-.809-.928-.891-.887-.972-.845-1.054-.804-1.137-.763-1.219-.721-46.631-1.26h-3.674l-3.464.001-3.261.003-3.063.005-2.872.008-2.687.012-2.508.017-2.336.023-2.168.03-2.008.036-1.854.045-1.706.054-1.564.063-1.428.074-1.298.085-1.175.097-1.057.111-.947.124-.841.139-.742.154-.65.17-.563.187-.483.205-.408.224-.341.243-.278.264-.223.285-.173.306-.13.329-.092.353-.061.377-.037.402-.017.428-.005.455.001.482.002.511.084.963.249.996.407 1.025.561 1.049.708 1.067.85 1.081.985 1.091 1.117 1.096 1.241 1.096 1.36 1.091 1.474 1.081 1.581 1.067 1.684 1.049 1.779 1.025 1.871.996 1.956.963 2.035.926 2.109.883 2.176.836 2.24.783 2.416.632 2.211.64 2.009.658 1.812.684 1.62.719 1.432.763 1.248.816 1.068.876.894.947.723 1.025.556 1.113.395 1.21.657 1.303.304 1.376-.028 1.428-.339 1.459-.629 1.47-.899 1.459-1.148 1.428-1.376 1.376-1.584 1.304-.64.333-.661.299-.683.265-.703.232-.725.197-.745.162-.767.128-.789.093-.81.058-.831.024-.854-.012-.875-.047-.897-.083-.919-.118-.941-.154-.963-.19-.986-.225-1.007-.262-1.031-.299-1.053-.334-1.075-.372-1.099-.408-1.121-.444-1.144-.482-1.168-.519-1.19-.557-1.214-.594-1.237-.631-1.26-.669-1.284-.708-1.308-.745-1.331-.783-1.355-.822-1.379-.86-1.403-.898-1.427-.938-1.452-.976-1.475-1.016-1.5-1.054-1.525-1.094-1.549-1.134-1.574-1.173-1.598-1.212-1.624-1.253-1.648-1.293-1.674-1.333-1.698-1.373-1.724-1.414-1.75-1.454-1.774-1.495-1.801-1.536-1.826-1.577-1.851-1.619-1.878-1.659-2.314-1.899-2.185-1.776-2.062-1.657-1.944-1.539-1.832-1.424-1.727-1.311-1.626-1.2-1.531-1.092-1.443-.985-1.36-.882-1.282-.781-1.211-.682-1.146-.584-1.085-.491-1.032-.398-.983-.308-.94-.22-.903-.135-.873-.053-.847.029-.827.107-.813.182-.806.257-.803.328-.807.397-.815.465-.831.528m196.608 68.056-1.202.851-1.084.972-.968 1.079-.854 1.176-.74 1.262-.627 1.336-.515 1.397-.405 1.449-.296 1.488-.187 1.516-.08 1.533.026 1.537.131 1.531.235 1.513.338 1.483.44 1.442.54 1.39.64 1.325.738 1.25.836 1.164.932 1.064 1.027.955 1.121.833 1.214.701.231.105.273.105.317.104.362.104.408.104.457.102.507.102.557.1.61.099.664.098.719.096.777.095.834.092.895.09.955.088 1.019.086 1.082.083 1.149.08 1.215.077 1.284.074 1.354.071 1.425.068 1.498.064 1.573.06 1.649.056 1.726.053 1.804.048 1.885.044 1.967.039 2.049.034 2.135.03 2.22.025 2.308.019 2.397.014 2.487.009 2.579.003 3.091-.001h2.941l2.794-.001 2.653-.002 2.514-.003 2.381-.004 2.251-.007 2.125-.008 2.005-.011 1.887-.013 1.774-.017 1.666-.019 1.561-.024 1.461-.027 1.365-.031 1.273-.036 1.185-.041 1.101-.046 1.023-.051.946-.057.876-.062.809-.069.746-.076.688-.082.633-.09.583-.097.537-.105.496-.113.457-.121.425-.13.395-.139.365-.148.35-.158.34-.167.32-.178.31-.188.3-.199 1.22-1.221 1.1-1.168 1-1.159.87-1.189.73-1.262.59-1.376.44-1.532.26-1.729.1-1.967.23-1.574.09-1.565-.07-1.548-.21-1.521-.35-1.486-.48-1.443-.62-1.39-.74-1.329-.87-1.259-.98-1.18-1.1-1.093-1.21-.996-.29-.199-.29-.188-.29-.178-.28-.167-.29-.158-.3-.148-.311-.139-.338-.13-.365-.121-.399-.113-.437-.105-.482-.097-.531-.089-.586-.083-.648-.076-.713-.069-.785-.062-.863-.057-.945-.051-1.034-.046-1.128-.041-1.227-.035-1.332-.032-1.443-.027-1.558-.023-1.681-.02-1.807-.017-1.939-.013-2.078-.011-2.222-.008-2.37-.007-2.525-.004-2.686-.003-2.851-.002-3.022-.001h-6.581l-46.631 1.26m15.124 209.208.022-1.306.006-1.305-.011-1.304-.027-1.303-.043-1.301-.06-1.3-.076-1.298-.092-1.296-.109-1.294-.125-1.292-.141-1.29-.157-1.287-.173-1.285-.189-1.281-.205-1.279-.221-1.276-.237-1.272-.252-1.269-.269-1.266-.284-1.262-.3-1.258-.316-1.254-.331-1.25-.347-1.246-.363-1.241-.378-1.237-.393-1.232-.409-1.227-.425-1.222-.439-1.217-.455-1.212-.471-1.206-.485-1.201-.501-1.195-.516-1.189-.531-1.183-.546-1.177-.561-1.17-.576-1.164-.591-1.157-.606-1.151-.621-1.143-.635-1.137-.651-1.129-.665-1.122-.679-1.114-.695-1.107-.927-1.431-.95-1.414-.972-1.396-.994-1.38-1.015-1.361-1.037-1.343-1.058-1.325-1.078-1.307-1.1-1.288-1.119-1.269-1.14-1.249-1.159-1.231-1.179-1.211-1.198-1.191-1.217-1.171-1.236-1.151-1.254-1.13-1.272-1.11-1.291-1.088-1.308-1.068-1.325-1.046-1.343-1.024-1.36-1.003-1.376-.981-1.392-.958-1.409-.936-1.425-.913-1.44-.891-1.456-.867-1.47-.843-1.486-.821-1.5-.796-1.514-.772-1.529-.748-1.542-.723-1.556-.699-1.073-.474-1.062-.46-1.052-.447-1.043-.434-1.036-.421-1.029-.409-1.026-.396-1.023-.384-1.021-.371-1.022-.359-1.024-.346-1.027-.335-1.032-.323-1.038-.311-1.046-.299-1.055-.288-1.066-.277-1.079-.265-1.092-.254-1.108-.243-1.124-.232-1.143-.222-1.163-.21-1.185-.201-1.207-.189-1.232-.18-1.258-.169-1.285-.159-1.315-.149-1.344-.139-1.377-.13-1.411-.12-1.445-.111-1.482-.101-1.52-.092-1.56-.083-1.601-.074-1.643-.065-1.688-.056-1.733-.048-1.78-.039-1.829-.031-1.879-.022-1.931-.015-1.984-.006-2.039.001-2.095.01-2.152.017-2.212.024-2.273.032-2.335.039-2.398.046-2.464.054-2.531.06-2.599.067-2.669.074-2.741.08-2.813.087-2.887.093-2.964.099-3.04.105-3.12.112-3.2.117h-3.209l-2.874.004-2.563.011-2.272.02-2.005.034-1.759.05-1.535.07-1.333.093-1.153.12-.996.149-.861.183-.746.218-.656.259-.585.301-.539.348-.513.398-.51.45-.528.507-.569.566-1.261 2.52-2.52 8.822v99.581l.001 4.797.001 4.633.002 4.471.003 4.312.005 4.157.006 4.005.008 3.854.009 3.708.012 3.565.014 3.423.016 3.286.02 3.151.022 3.019.025 2.89.029 2.764.033 2.641.036 2.521.04 2.404.045 2.29.049 2.179.053 2.07.059 1.966.063 1.863.069 1.764.074 1.667.08 1.575.086 1.483.092 1.397.099 1.312.105 1.23.112 1.152.119 1.076.126 1.004.133.934.141.867.149.804.157.743.165.685.174.63.182.579.191.529.2.484.21.44.219.401.229.363.239.33.249.298.259.27.27.245.281.223.292.204.302.187.315.174.326.163.338.156.35.152.362.15.375.152.387.156.401.163.413.174.29.118.388.115.483.11.576.107.664.103.751.1.835.096.914.092.993.089 1.067.085 1.138.082 1.207.078 1.273.075 1.336.071 1.396.068 1.452.065 1.507.061 1.558.058 1.606.055 1.651.051 1.694.048 1.733.045 1.769.042 1.803.039 1.834.036 1.861.033 1.886.029 1.907.027 1.927.024 1.942.02 1.955.018 1.966.015 1.972.013 1.977.009 1.978.006 1.976.004 1.971.001 1.964-.001 1.954-.005 1.94-.006 1.924-.01 1.904-.012 1.882-.015 1.857-.017 1.829-.019 1.798-.022 1.764-.025 1.727-.027 1.687-.029 1.645-.031 1.599-.034 1.55-.036 1.498-.039 1.444-.04 1.387-.043 1.326-.045 1.263-.047 1.197-.049 1.128-.051 1.055-.053.981-.055.902-.057.822-.059 1.475-.23 1.462-.244 1.447-.259 1.433-.274 1.421-.288 1.407-.304 1.394-.318 1.382-.333 1.369-.348 1.358-.363 1.345-.378 1.335-.393 1.323-.409 1.313-.424 1.301-.439 1.292-.454 1.282-.471 1.272-.485 1.262-.501 1.254-.517 1.244-.532 1.237-.548 1.227-.564 1.22-.58 1.212-.596 1.205-.611 1.198-.628 1.19-.644 1.185-.659 1.177-.676 1.172-.693 1.167-.708 1.16-.725 1.156-.742 1.151-.757 1.146-.775 1.142-.791 1.138-.807 1.135-.825 1.131-.841 1.127-.858 1.125-.874 1.123-.892 1.12-.909 1.118-.925 1.116-.943 1.115-.96 1.114-.977 1.113-.995 1.112-1.012 1.112-1.029 1.628-1.637 1.488-1.52 1.359-1.415 1.242-1.326 1.136-1.25 1.042-1.189.958-1.141.887-1.108.826-1.09.777-1.084.739-1.094.713-1.118.697-1.156.694-1.207.702-1.274.72-1.354.75-1.448.792-1.558.845-1.68.91-1.817.742-1.491.714-1.452.686-1.413.659-1.377.633-1.344.605-1.312.58-1.284.553-1.256.528-1.232.503-1.21.478-1.189.453-1.172.43-1.156.405-1.143.383-1.132.359-1.123.337-1.116.314-1.112.292-1.109.271-1.11.249-1.112.229-1.117.207-1.124.188-1.133.168-1.144.148-1.157.129-1.174.111-1.191.092-1.212.074-1.235.056-1.259.039-1.286.022-1.316.005-1.347-.011-1.381-.028-1.417-.042-1.456-.058-1.495-.073-1.539-.087-1.584m-51.673 18.905-.609 1.868-.646 1.825-.684 1.781-.72 1.738-.756 1.696-.794 1.654-.831 1.612-.868 1.571-.904 1.53-.942 1.491-.978 1.45-1.016 1.412-1.052 1.373-1.089 1.334-1.126 1.296-1.164 1.26-1.2 1.222-1.236 1.186-1.274 1.149-1.311 1.115-1.348 1.079-1.384 1.044-1.422 1.011-1.458.976-1.496.944-1.532.91-1.569.879-1.606.846-1.644.815-1.68.785-1.716.753-1.754.724-.746.291-.729.267-.72.245-.719.224-.726.203-.741.184-.762.166-.793.148-.831.132-.876.116-.929.102-.99.088-1.059.076-1.136.064-1.219.053-1.312.044-1.411.035-1.519.027-1.634.021-1.757.015-1.887.009-2.026.006-2.172.003-2.326.002h-2.488l-23.946 1.26v-122.248h21.425l28.987 1.26 1.643.491 1.621.528 1.598.565 1.575.602 1.552.639 1.529.675 1.506.713 1.481.749 1.458.787 1.433.823 1.409.86 1.384.898 1.359.934 1.334.971 1.309 1.008 1.283 1.045 1.257 1.082 1.231 1.118 1.205 1.156 1.178 1.193 1.152 1.229 1.124 1.267 1.097 1.303 1.07 1.34 1.042 1.378 1.014 1.414.986 1.451.958 1.488.929 1.525.9 1.561.871 1.599.842 1.636.666 1.362.585 1.264.511 1.187.444 1.13.385 1.092.334 1.076.289 1.08.252 1.104.223 1.148.201 1.212.185 1.298.179 1.402.178 1.529.186 1.674.201 1.84.223 2.027-.001 2.04-.004 1.879-.012 1.73-.023 1.598-.037 1.479-.056 1.376-.079 1.287-.104 1.214-.133 1.154-.167 1.11-.204 1.081-.244 1.066-.288 1.066-.337 1.08-.388 1.11-.444 1.155m-197.868-117.207-.658-1.258-.649-1.11-.66-.971-.69-.842-.737-.722-.804-.611-.888-.509-.991-.417-1.113-.334-1.253-.26-1.411-.196-1.588-.14-1.784-.094-1.998-.057-2.23-.029-2.481-.011-2.751-.001-2.75.014-2.481.044-2.231.08-1.998.12-1.783.165-1.589.214-1.411.268-1.253.326-1.113.39-.991.457-.888.529-.804.607-.737.688-.689.774-.661.865-.649.96-.657 1.061-.14.214-.135.217-.13.22-.124.228-.12.236-.114.247-.11.261-.105.275-.101.293-.096.313-.092.334-.087.359-.084.385-.079.413-.075.443-.071.477-.068.511-.064.549-.061.588-.057.629-.053.673-.051.719-.047.767-.044.817-.041.87-.039.924-.036.981-.033 1.04-.03 1.101-.028 1.164-.026 1.23-.023 1.298-.022 1.367-.019 1.44-.017 1.514-.016 1.59-.014 1.669-.012 1.75-.011 1.833-.009 1.918-.008 2.005-.007 2.095-.005 2.186-.005 2.281-.003 2.376-.003 2.475-.002 2.576-.002 2.678-.001 2.782-.001 2.89v15.049l-.001 2.736v2.656l-.002 2.578-.001 2.501-.003 2.426-.003 2.352-.005 2.28-.005 2.208-.007 2.139-.008 2.071-.009 2.004-.011 1.938-.013 1.875-.015 1.812-.016 1.751-.019 1.691-.02 1.633-.023 1.577-.026 1.521-.028 1.467-.03 1.414-.034 1.363-.036 1.314-.039 1.265-.043 1.218-.046 1.173-.049 1.129-.052 1.086-.057 1.045-.06 1.006-.064.967-.067.93-.072.894-.077.861-.08.827-.085.797-.09.767-.094.738-.1.711-.104.686-.109.662-.114.639-.12.617-.125.598-.131.579-.137.563-.142.546-.148.533-.154.52-.161.508-.167.499-.173.49-.179.483-.187.477-.193.473-.2.47-.207.469-.214.469-.221.47-.229.473-.236.478-.732 1.308-.92 1.388-1.086 1.439-1.23 1.466-1.353 1.466-1.453 1.44-1.533 1.387-1.589 1.309-1.624 1.203-1.638 1.072-1.628.915-1.598.73-1.274.65-1.299.574-1.322.5-1.342.426-1.359.355-1.375.283-1.388.213-1.397.144-1.405.077-1.41.009-1.413-.056-1.413-.122-1.41-.185-1.405-.248-1.397-.309-1.388-.37-1.374-.43-1.36-.488-1.342-.545-1.322-.602-1.299-.658-1.274-.711-1.246-.765-1.215-.817-1.183-.868-1.148-.918-1.109-.968-1.07-1.015-1.026-1.062-.981-1.108-.933-1.153-.882-1.196-.829-1.239-.296-.418-.286-.413-.276-.411-.268-.41-.259-.41-.25-.412-.241-.415-.233-.421-.225-.427-.216-.436-.208-.445-.201-.456-.193-.47-.185-.483-.178-.499-.171-.517-.163-.536-.157-.556-.149-.579-.143-.602-.137-.627-.13-.654-.124-.681-.118-.712-.112-.743-.106-.776-.101-.81-.095-.846-.09-.884-.085-.923-.08-.963-.075-1.005-.071-1.049-.065-1.094-.062-1.141-.057-1.189-.053-1.239-.049-1.29-.046-1.344-.041-1.397-.039-1.454-.035-1.511-.031-1.57-.029-1.631-.026-1.693-.023-1.756-.021-1.822-.018-1.889-.016-1.956-.014-2.027-.011-2.098-.01-2.172-.009-2.245-.007-2.322-.005-2.399-.004-2.478-.004-2.559-.002-2.641-.001-2.725-.001-2.81-.001-2.897v-6.061l.001-3.717.002-3.592.002-3.469.003-3.347.001-3.228v-3.112l-.002-2.996-.005-2.884-.009-2.774-.014-2.665-.018-2.559-.024-2.455-.031-2.353-.037-2.254-.046-2.155-.054-2.061-.063-1.967-.073-1.876-.084-1.786-.095-1.701-.107-1.615-.12-1.533-.134-1.452-.147-1.374-.162-1.298-.178-1.224-.193-1.152-.211-1.083-.228-1.015-.247-.949-.265-.887-.285-.825-.306-.766-.326-.71-.348-.655-.371-.602-.394-.552-.418-.504-.442-.458-.467-.414-.493-.372-.52-.332-.548-.295-.575-.26-.604-.227-.633-.195-.664-.167-.694-.14-.725-.115-.758-.093-.791-.072-.824-.055-.859-.038-.893-.025-.93-.013-.965-.003-1.003.004-1.04.009-1.079.013-1.118.013-1.157.012-1.199.009-1.239.004-2.734.001-2.404.008-2.1.022-1.826.042-1.577.07-1.358.105-1.164.145-.999.194-.862.249-.752.311-.668.38-.614.455-.586.538-5.042 3.781v1.261l-1.26 3.781-.076 2.362-.071 2.362-.067 2.362-.063 2.362-.058 2.363-.054 2.362-.049 2.362-.045 2.363-.041 2.362-.036 2.363-.032 2.362-.028 2.363-.023 2.363-.019 2.362-.014 2.363-.01 2.362-.006 2.363-.001 2.362.003 2.363.007 2.362.012 2.363.016 2.362.021 2.362.025 2.363.029 2.362.034 2.362.038 2.362.043 2.362.047 2.362.051 2.362.056 2.361.06 2.362.064 2.361.069 2.361.073 2.362.078 2.361.082 2.361.086 2.36.091 2.361.095 2.361.099 2.36.104 2.36.108 2.36.113 2.36.117 2.359.121 2.36.126 2.359.13 2.359.134 2.359.139 2.358.143 2.359.148 2.358.152 2.358.156 2.357.161 2.358.165 2.357.169 2.357.174 2.356.178 2.357.183 2.356.187 2.355.191 2.356.196 2.355.621 1.713.659 1.7.697 1.686.734 1.673.77 1.658.805 1.642.841 1.625.874 1.608.908 1.591.941 1.571.972 1.551 1.004 1.531 1.034 1.51 1.064 1.487 1.093 1.465 1.122 1.441 1.149 1.416 1.176 1.392 1.203 1.365 1.228 1.338 1.253 1.31 1.277 1.282 1.301 1.253 1.323 1.223 1.345 1.191 1.367 1.16 1.387 1.128 1.407 1.094 1.426 1.06 1.445 1.025 1.463.99 1.479.953 1.496.916 1.511.877 1.527.839 1.54.799 1.554.759 1.567.717 1.579.676 1.591.632 1.6.589 1.611.544 1.621.499 1.628.453 1.92.461 1.917.424 1.914.385 1.911.348 1.907.311 1.903.274 1.899.237 1.893.2 1.888.164 1.882.127 1.875.092 1.869.056 1.861.02 1.854-.015 1.845-.05 1.836-.085 1.827-.12 1.818-.154 1.808-.188 1.797-.223 1.786-.257 1.774-.29 1.763-.323 1.751-.357 1.737-.39 1.725-.423 1.71-.455 1.697-.488 1.682-.52 1.667-.552 1.651-.583 1.635-.615 1.619-.647 1.602-.677 1.585-.709 1.567-.739 1.549-.77 1.53-.8 1.511-.83 1.491-.86 1.471-.889 1.451-.919 1.43-.948 1.408-.977 1.387-1.006 1.364-1.035 1.341-1.062 1.319-1.091 1.294-1.119 1.271-1.147 1.245-1.174 1.221-1.202 1.195-1.228 1.17-1.256 1.143-1.282 1.116-1.309 1.088-1.335 1.061-1.36 1.033-1.387 1.004-1.413.975-1.437.946-1.463.915-1.488.532-.89.514-.871.499-.855.481-.839.466-.827.45-.816.435-.808.419-.801.404-.796.389-.794.376-.794.361-.795.347-.799.333-.805.32-.812.307-.823.295-.834.281-.849.27-.864.257-.883.246-.903.234-.925.224-.949.212-.976.202-1.004.191-1.034.181-1.067.172-1.102.162-1.138.153-1.177.143-1.217.136-1.261.126-1.305.119-1.352.11-1.401.103-1.452.096-1.505.088-1.561.082-1.617.075-1.677.069-1.738.063-1.801.057-1.867.052-1.934.046-2.004.042-2.076.037-2.149.033-2.224.028-2.303.025-2.382.022-2.464.018-2.548.015-2.634.012-2.722.01-2.812.007-2.905.006-2.998.004-3.095.003-3.193.002-3.293.001-3.396v-7.108l-1.26-68.055m308.775-6.302-5.041 5.041-.118.182-.115.185-.11.191-.108.199-.103.209-.1.221-.097.234-.093.251-.09.268-.086.289-.083.31-.081.334-.077.36-.074.387-.071.418-.068.449-.066.484-.062.519-.06.557-.057.596-.055.639-.052.682-.05.729-.047.776-.045.825-.042.878-.041.932-.038.987-.036 1.045-.034 1.105-.032 1.166-.03 1.231-.028 1.296-.026 1.364-.025 1.433-.022 1.506-.022 1.579-.019 1.655-.018 1.733-.017 1.812-.016 1.894-.013 1.978-.013 2.064-.012 2.151-.01 2.241-.009 2.333-.009 2.427-.007 2.522-.006 2.62-.006 2.72-.004 2.821-.004 2.925-.004 3.031-.002 3.138-.003 3.249-.001 3.359-.002 3.474-.001 3.589v3.707l-.001 3.827v21.739l.001 4.526.001 4.371.001 4.222.003 4.073.003 3.929.004 3.787.006 3.647.006 3.511.009 3.378.01 3.247.012 3.119.013 2.994.016 2.872.018 2.752.021 2.637.023 2.522.026 2.412.029 2.304.032 2.198.034 2.097.039 1.997.042 1.901.045 1.806.049 1.716.053 1.628.057 1.543.062 1.461.066 1.38.07 1.305.075 1.23.08 1.159.085 1.092.09 1.026.095.963.101.904.106.847.112.794.118.742.124.694.13.648.137.606.143.567.15.529.156.496.164.464.17.436.178.41.185.388.193.368.201.351.208.337.216.325.225.317.233.312.241.309.25.309.259.311.268.318.276.326.286.338.296.352.9.579.838.483.822.395.847.317.918.246 1.031.185 1.189.133 1.39.089 1.635.054 1.924.028 2.257.01 2.633.002 2.716.267 2.35.216 2.02.157 1.73.092 1.48.019 1.27-.06 1.09-.145.96-.239.85-.338.79-.446.77-.558.78-.68.84-.806.41-.233.4-.221.39-.211.37-.204.37-.201.35-.199.33-.202.33-.207.31-.214.31-.225.29-.239.28-.255.27-.274.26-.296.25-.321.24-.349.23-.38.22-.413.2-.45.2-.489.2-.532.18-.576.17-.625.17-.675.15-.729.15-.786.14-.845.14-.907.12-.973.12-1.04.11-1.112.11-1.185.1-1.262.09-1.342.09-1.424.08-1.509.07-1.598.07-1.689.06-1.782.06-1.88.05-1.979.05-2.081.05-2.187.04-2.295.03-2.407.04-2.52.03-2.638.02-2.757.02-2.88.02-3.005.02-3.134.01-3.265.01-3.4.01-3.536.01-3.676.01-3.819v-3.964l.01-4.114v-48.711l-.01-3.258v-9.166l-.01-2.858v-2.763l-.01-2.67v-2.577l-.01-2.486-.01-2.398-.01-2.312-.01-2.226-.01-2.142-.01-2.061-.02-1.981-.01-1.902-.02-1.826-.02-1.751-.02-1.678-.02-1.606-.02-1.537-.03-1.469-.02-1.403-.03-1.338-.03-1.275-.03-1.215-.04-1.155-.03-1.097-.04-1.041-.04-.988-.04-.935-.05-.884-.05-.835-.04-.788-.06-.742-.05-.699-.06-.656-.06-.616-.06-.578-.07-.54-.06-.505-.08-.472-.07-.44-.08-.41-.08-.382-.08-.355-.09-.331-.09-.307-.09-.286-.1-.266-.1-.248-.1-.232-.11-.217-.11-.204-.11-.194-.12-.184-.47-1.27-.54-1.145-.6-1.027-.69-.915-.77-.808-.87-.708-.98-.615-1.1-.526-1.23-.445-1.35-.37-1.51-.301-1.66-.237-1.82-.18-1.99-.13-2.17-.085-2.37-.046-2.566-.014-16.384 1.26m-656.62-104.604-1.202.851-1.084.972-.968 1.079-.854 1.176-.74 1.262-.627 1.336-.515 1.397-.405 1.449-.296 1.488-.187 1.516-.08 1.533.026 1.537.131 1.531.235 1.513.338 1.483.44 1.442.54 1.39.64 1.325.738 1.25.836 1.164.932 1.064 1.027.955 1.121.833 1.214.701.234.105.281.105.33.104.379.104.43.104.482.102.534.102.587.1.642.099.697.098.754.096.812.095.869.092.929.09.989.088 1.05.086 1.113.083 1.176.08 1.24.077 1.305.074 1.372.071 1.438.068 1.507.064 1.575.06 1.646.056 1.716.053 1.789.048 1.861.044 1.935.039 2.011.034 2.086.03 2.163.025 2.24.019 2.32.014 2.399.009 2.48.003 3.188-.001h3.027l2.87-.001 2.719-.002 2.571-.003 2.429-.004 2.291-.007 2.157-.008 2.029-.011 1.905-.013 1.785-.017 1.671-.019 1.56-.024 1.455-.027 1.354-.031 1.257-.036 1.166-.041 1.079-.046.997-.051.919-.057.845-.062.777-.069.713-.076.654-.082.6-.09.549-.097.504-.105.463-.113.427-.121.395-.13.369-.139.346-.148.329-.158.316-.167.307-.178.304-.188.304-.199 1.546-1.221 1.297-1.168 1.078-1.159.892-1.189.737-1.262.612-1.376.519-1.532.456-1.729.425-1.967.213-1.574.015-1.565-.169-1.548-.339-1.521-.496-1.486-.642-1.443-.772-1.39-.89-1.329-.996-1.259-1.087-1.18-1.167-1.093-1.232-.996-.299-.199-.288-.188-.283-.178-.282-.167-.288-.158-.299-.148-.316-.139-.338-.13-.366-.121-.398-.113-.437-.105-.482-.097-.531-.089-.587-.083-.647-.076-.713-.069-.786-.062-.862-.057-.946-.051-1.033-.046-1.128-.041-1.227-.035-1.332-.032-1.443-.027-1.559-.023-1.68-.02-1.807-.017-1.94-.013-2.077-.011-2.222-.008-2.37-.007-2.526-.004-2.685-.003-2.851-.002-3.022-.001h-6.581l-46.631 1.26"/>
  <style>
        path { fill: #000; }
        @media (prefers-color-scheme: dark) {
            path { fill: #FFF; }
        }
  </style>
</svg>
