<svg xmlns="http://www.w3.org/2000/svg" width="331" height="72" class="h-auto w-28"><path d="M98.576 18.312c-2.176 0-4.202.47-6.08 1.408-1.834.939-3.456 2.283-4.864 4.032-1.365 1.75-2.432 3.861-3.2 6.336-.768 2.432-1.152 5.163-1.152 8.192 0 3.03.363 5.782 1.088 8.256.768 2.432 1.835 4.523 3.2 6.272a15.44 15.44 0 0 0 5.056 4.032c1.963.939 4.16 1.408 6.592 1.408 2.603 0 4.907-.576 6.912-1.728 2.048-1.152 3.755-2.73 5.12-4.736 1.365-2.005 2.368-4.267 3.008-6.784l3.264 1.216c-.725 3.03-1.941 5.718-3.648 8.064a18.331 18.331 0 0 1-6.4 5.44c-2.517 1.28-5.397 1.92-8.64 1.92-3.157 0-6.08-.554-8.768-1.664-2.688-1.152-5.013-2.752-6.976-4.8-1.962-2.09-3.498-4.565-4.608-7.424-1.067-2.858-1.6-6.016-1.6-9.472 0-3.413.555-6.55 1.664-9.408 1.11-2.858 2.645-5.333 4.608-7.424 2.005-2.09 4.31-3.69 6.912-4.8 2.646-1.152 5.462-1.728 8.448-1.728 2.816 0 5.269.448 7.36 1.344 2.133.854 3.904 2.09 5.312 3.712 1.451 1.579 2.496 3.456 3.136 5.632l-2.048-.448 1.024-9.6h3.328v13.696h-3.584c-.768-2.218-1.792-4.139-3.072-5.76a12.628 12.628 0 0 0-4.672-3.776c-1.877-.938-4.117-1.408-6.72-1.408Zm29.875 37.76V20.488c0-.939-.512-1.557-1.536-1.856-1.024-.299-2.283-.448-3.776-.448h-.576V15.56h17.792v2.624h-.64c-1.451 0-2.709.15-3.776.448-1.024.299-1.536.917-1.536 1.856v35.584c0 .939.512 1.557 1.536 1.856 1.067.299 2.325.448 3.776.448h.64V61h-17.792v-2.624h.576c1.493 0 2.752-.15 3.776-.448 1.024-.298 1.536-.917 1.536-1.856Zm32.596 0V18.696h-3.84c-1.835 0-3.328.085-4.48.256-1.152.128-2.006.427-2.56.896-.555.427-.896 1.046-1.024 1.856l-.768 6.144h-3.008V15.56h37.248v12.288h-3.008l-.768-6.144c-.086-.81-.427-1.43-1.024-1.856-.555-.47-1.408-.768-2.56-.896-1.152-.17-2.646-.256-4.48-.256h-3.776v37.376c0 .939.512 1.557 1.536 1.856 1.024.299 2.282.448 3.776.448h1.024V61h-18.688v-2.624h1.024c1.536 0 2.816-.15 3.84-.448 1.024-.298 1.536-.917 1.536-1.856Zm32.467 0V20.488c0-.939-.512-1.557-1.536-1.856-1.024-.299-2.283-.448-3.776-.448h-.576V15.56h17.792v2.624h-.64c-1.451 0-2.71.15-3.776.448-1.024.299-1.536.917-1.536 1.856v35.584c0 .939.512 1.557 1.536 1.856 1.066.299 2.325.448 3.776.448h.64V61h-17.792v-2.624h.576c1.493 0 2.752-.15 3.776-.448 1.024-.298 1.536-.917 1.536-1.856Zm29.011-11.712c0 2.475.277 4.566.832 6.272.597 1.664 1.429 3.03 2.496 4.096a10.234 10.234 0 0 0 3.84 2.24c1.493.47 3.157.704 4.992.704 1.749 0 3.349-.234 4.8-.704a10.356 10.356 0 0 0 3.776-2.304c1.067-1.067 1.877-2.453 2.432-4.16.555-1.75.832-3.861.832-6.336V19.656c0-.256-.149-.47-.448-.64-.256-.17-.64-.32-1.152-.448a9.858 9.858 0 0 0-1.728-.256 15.004 15.004 0 0 0-1.984-.128h-.896V15.56h15.744v2.624h-.704c-.939 0-1.813.107-2.624.32-.768.213-1.387.576-1.856 1.088-.469.47-.704 1.11-.704 1.92v22.656c0 3.072-.427 5.718-1.28 7.936-.811 2.219-1.984 4.032-3.52 5.44-1.493 1.408-3.243 2.454-5.248 3.136-1.963.64-4.096.96-6.4.96-2.517 0-4.821-.341-6.912-1.024-2.091-.682-3.904-1.706-5.44-3.072-1.536-1.408-2.731-3.2-3.584-5.376-.811-2.176-1.216-4.779-1.216-7.808V20.488c0-.939-.512-1.557-1.536-1.856-1.024-.299-2.304-.448-3.84-.448h-.576V15.56h17.792v2.624h-.576c-.597 0-1.216.021-1.856.064-.597 0-1.173.043-1.728.128a8.213 8.213 0 0 0-1.28.192c-.299.043-.448.128-.448.256V44.36ZM261.313 61v-2.624h.704c.981 0 1.856-.085 2.624-.256.768-.17 1.387-.47 1.856-.896.469-.47.704-1.066.704-1.792V20.488c0-.64-.235-1.11-.704-1.408-.469-.341-1.088-.576-1.856-.704a16.086 16.086 0 0 0-2.624-.192h-.704V15.56h14.656l12.992 40.448-1.152-.128 13.504-40.32h14.4v2.624h-.576c-.981 0-1.877.064-2.688.192-.811.128-1.451.363-1.92.704-.469.299-.704.768-.704 1.408v35.584c0 .597.235 1.067.704 1.408.469.342 1.109.576 1.92.704a17.31 17.31 0 0 0 2.688.192h.576V61h-17.344v-2.624h.576c.768 0 1.515-.021 2.24-.064a18.075 18.075 0 0 0 1.92-.192c.512-.128.768-.256.768-.384V16.52l.64.128-15.232 44.48h-3.904l-15.232-44.48.704.064v40.512c0 .256.256.49.768.704.512.17 1.152.299 1.92.384.811.043 1.6.064 2.368.064h.576V61h-15.168ZM13.418 24.525h4.473v47.411h-4.473zM21.469 24.525h4.473v47.411h-4.473zM30.414 24.525h4.473v47.411h-4.473zM38.465 24.525h4.473v47.411h-4.473z"/><circle cx="27.731" cy="15.579" r="5.367"/><path fill-rule="evenodd" d="M8.498 23.63a8.498 8.498 0 1 0 0-16.996 8.498 8.498 0 0 0 0 16.996Zm0-3.399a5.099 5.099 0 1 0 0-10.198 5.099 5.099 0 0 0 0 10.198Zm0-2.541a2.558 2.558 0 1 1 0-5.116 2.558 2.558 0 0 1 0 5.116ZM46.963 23.63a8.498 8.498 0 1 0 0-16.996 8.498 8.498 0 0 0 0 16.996Zm0-3.399a5.099 5.099 0 1 0 0-10.198 5.099 5.099 0 0 0 0 10.198Zm0-2.541a2.558 2.558 0 1 1 0-5.116 2.558 2.558 0 0 1 0 5.116Z" clip-rule="evenodd"/><path d="M0 .372h55.462V3.95H0z"/></svg>